<!DOCTYPE svg PUBLIC "-//W3C//DTD SVG 1.1//EN" "http://www.w3.org/Graphics/SVG/1.1/DTD/svg11.dtd">

<svg id="svg" version="1.1" xmlns="http://www.w3.org/2000/svg" xmlns:xlink="http://www.w3.org/1999/xlink" width="400" height="400" viewBox="0, 0, 400,400">
<g id="svgg"> 
<path style="fill:#2c3444;" d="M191.003 23.465 C 178.680 24.408,174.013 25.027,164.113 27.031 C 139.450 32.024,113.691 43.300,96.120 56.795 C 95.046 57.619,93.794 58.547,93.338 58.857 C 84.068 65.137,66.035 83.271,58.294 94.096 C 57.483 95.230,56.713 96.242,56.583 96.345 C 56.073 96.750,50.395 105.352,48.296 108.899 C 47.075 110.963,45.826 113.074,45.519 113.590 C 20.404 155.837,16.414 214.084,35.289 262.923 C 37.305 268.138,38.174 270.088,41.831 277.601 C 47.089 288.405,54.530 300.090,62.001 309.278 C 81.697 333.500,108.104 352.721,136.832 363.746 C 177.375 379.305,229.175 378.600,265.897 361.990 C 266.561 361.690,268.320 360.922,269.807 360.284 C 277.703 356.895,290.032 350.090,296.907 345.326 C 302.044 341.767,303.099 341.018,303.280 340.803 C 303.383 340.681,304.058 340.167,304.780 339.660 C 316.030 331.762,334.757 312.454,342.699 300.563 C 343.184 299.837,344.433 298.001,345.475 296.482 C 360.279 274.910,371.325 244.909,373.959 219.119 C 374.106 217.676,374.288 216.159,374.363 215.749 C 375.935 207.156,375.100 185.671,372.607 170.572 C 361.782 105.019,315.853 52.219,251.546 31.404 C 246.458 29.757,236.740 27.227,233.278 26.649 C 232.089 26.450,229.141 25.944,226.727 25.524 C 217.471 23.914,199.027 22.851,191.003 23.465 M210.309 56.614 C 230.621 57.845,252.998 64.852,271.790 75.865 C 274.891 77.683,285.285 84.574,285.661 85.062 C 285.764 85.196,286.607 85.885,287.535 86.594 C 294.976 92.280,303.938 101.018,310.031 108.529 C 311.370 110.178,312.555 111.612,312.664 111.715 C 312.960 111.993,318.334 119.538,319.473 121.275 C 321.248 123.981,323.609 127.973,325.128 130.834 C 325.949 132.381,327.073 134.489,327.625 135.520 C 344.241 166.542,346.901 211.345,334.253 247.163 C 323.017 278.983,298.874 307.598,269.541 323.861 C 266.592 325.496,256.981 330.272,256.639 330.272 C 256.530 330.272,255.550 330.675,254.462 331.169 C 245.478 335.241,231.654 339.139,220.471 340.754 C 193.654 344.626,167.285 341.213,142.514 330.663 C 130.872 325.705,118.073 317.987,108.915 310.403 C 108.043 309.681,106.419 308.339,105.305 307.419 C 96.188 299.891,83.866 285.280,76.838 273.664 C 68.808 260.393,63.040 246.344,59.293 230.928 C 56.758 220.499,56.801 221.038,56.811 199.250 C 56.822 177.721,56.838 177.510,59.213 167.573 C 60.583 161.841,63.754 151.622,65.204 148.266 C 65.382 147.854,65.780 146.926,66.088 146.204 C 66.395 145.483,67.187 143.627,67.847 142.081 C 73.286 129.338,81.038 117.024,90.854 105.537 C 97.085 98.246,107.548 88.495,113.590 84.348 C 114.311 83.853,114.986 83.346,115.089 83.223 C 116.218 81.869,128.438 74.518,134.878 71.318 C 159.068 59.301,181.736 54.882,210.309 56.614 M279.663 110.391 C 276.879 112.532,273.201 115.351,271.489 116.655 C 269.777 117.959,266.948 120.122,265.202 121.462 C 261.975 123.939,258.403 126.668,252.671 131.034 C 246.553 135.694,242.852 138.536,239.993 140.769 C 238.408 142.006,236.746 143.271,236.298 143.580 C 235.850 143.889,233.573 145.599,231.238 147.380 C 228.902 149.160,224.714 152.354,221.931 154.476 C 216.390 158.701,208.014 165.000,206.607 166.002 C 206.117 166.350,205.274 166.986,204.733 167.413 C 202.967 168.810,199.608 170.914,198.216 171.495 L 196.853 172.065 193.904 169.912 C 192.282 168.729,187.613 165.230,183.528 162.137 C 179.442 159.044,173.871 154.827,171.147 152.765 C 168.423 150.703,163.847 147.252,160.979 145.095 C 158.111 142.939,155.679 141.076,155.576 140.955 C 155.473 140.834,153.702 139.466,151.640 137.915 C 149.578 136.364,146.120 133.743,143.955 132.092 C 137.014 126.796,131.731 122.795,130.664 122.024 C 130.093 121.612,129.432 121.106,129.195 120.900 C 128.617 120.398,120.066 113.855,116.057 110.848 C 115.456 110.397,114.035 109.311,112.899 108.435 C 110.151 106.314,109.941 106.364,109.741 109.185 C 109.649 110.473,109.549 149.695,109.517 196.345 L 109.460 281.162 125.020 281.162 L 140.581 281.162 140.634 275.820 C 140.663 272.882,140.734 268.791,140.792 266.729 C 140.850 264.667,140.941 247.966,140.996 229.616 C 141.105 192.847,141.443 172.850,141.971 171.906 C 142.409 171.123,150.480 176.806,164.843 188.011 C 166.331 189.172,169.452 191.577,171.778 193.356 C 174.104 195.135,177.526 197.757,179.381 199.183 C 191.370 208.399,196.153 211.809,197.089 211.809 C 198.031 211.809,201.721 209.783,204.093 207.962 C 204.695 207.501,208.913 204.329,213.465 200.915 C 218.018 197.501,223.177 193.632,224.930 192.317 C 226.682 191.002,228.201 189.827,228.304 189.706 C 228.550 189.418,246.037 176.316,247.982 174.962 C 248.809 174.387,250.412 173.259,251.546 172.454 L 253.608 170.992 253.803 177.248 C 253.910 180.690,254.039 205.346,254.091 232.040 C 254.142 258.735,254.323 280.715,254.493 280.885 C 254.897 281.289,284.752 281.072,285.161 280.662 C 285.735 280.087,285.566 106.449,284.991 106.482 C 284.844 106.491,282.446 108.250,279.663 110.391"></path>
</g>

</svg>